<svg id="undraw_add_post_re_174w" xmlns="http://www.w3.org/2000/svg" width="947.25" height="603.69" viewBox="0 0 947.25 603.69">
  <path id="Path_1" data-name="Path 1" d="M452.655,713.275l-29,16.84,28.59-6.9c-.22,2.36-.52,4.68-.92,6.95-.11.63-.23,1.25-.36,1.87a51.876,51.876,0,0,1-5.25,14.92c-.48.86-.96,1.7-1.46,2.51-.48.82-.98,1.61-1.49,2.38h-76.87c-.64-.77-1.25-1.57-1.81-2.38a35.975,35.975,0,0,1-6.18-26.62,44.981,44.981,0,0,1,1.2-5.63,51.574,51.574,0,0,1,1.83-5.57,73.441,73.441,0,0,1,4.41-9.35c3.52-6.34,9.01-12.06,15.48-17.14a108.071,108.071,0,0,1,9.78-6.8q.96-.615,1.95-1.2c1.01-.6,2.02-1.19,3.04-1.76,2.03-1.16,4.08-2.26,6.13-3.3.54-.28,1.07-.55,1.6-.81,4.45-2.22,8.88-4.21,13.1-5.96.53-.22,1.07-.44,1.6-.65a233.3,233.3,0,0,1,25.72-8.81s.03.08.08.25c.13.46.46,1.57.91,3.21,1.25,4.55,3.45,13.23,5.22,23.71.1.57.19,1.15.29,1.73a181.688,181.688,0,0,1,2.45,26.81c.01.56.01,1.11.01,1.67Z" transform="translate(-126.375 -148.155)" fill="#0c7fda"/>
  <path id="Path_2" data-name="Path 2" d="M445.865,654.845c-.01.03-.11.52-.34,1.42-.19.75-.45,1.78-.79,3.06-1.17,4.47-3.25,11.96-6.21,20.98-.17.52-.35,1.06-.53,1.6-2.06,6.17-4.51,12.99-7.34,20-.71,1.76-1.42,3.49-2.15,5.18-.22.53-.44,1.05-.67,1.56q-4.65,10.77-9.57,19.71l-.83,1.49a134.527,134.527,0,0,1-13.19,19.62c-.67.82-1.35,1.61-2.04,2.38h-2.32c.7-.77,1.4-1.57,2.08-2.38a132.144,132.144,0,0,0,13.87-20.4c.28-.49.56-.98.83-1.48,3.53-6.41,6.74-13.11,9.61-19.75.23-.51.45-1.03.67-1.56,3.75-8.78,6.9-17.41,9.44-25.01.18-.54.36-1.08.53-1.61,3.7-11.22,6.02-20.02,6.91-23.54.12-.52.22-.93.29-1.21.07-.26.1-.41.11-.44l.81.19h.01Z" transform="translate(-126.375 -148.155)" fill="#fff"/>
  <path id="Path_3" data-name="Path 3" d="M451.485,683.165c-.51-.03-1.02-.08-1.53-.13a45,45,0,0,1-11.43-2.73c-.53-.21-1.07-.42-1.61-.65a45.861,45.861,0,0,1-4.28-2.11,45.275,45.275,0,0,1-14.61-12.87c-.13-.17-.26-.35-.38-.52q-.78.33-1.59.66c.12.17.24.34.37.51a46.766,46.766,0,0,0,15.39,13.7,48.321,48.321,0,0,0,4.57,2.24c.53.22,1.07.44,1.61.64a46.891,46.891,0,0,0,12.25,2.86c.5.05,1.01.09,1.51.12C451.665,684.295,451.575,683.725,451.485,683.165Z" transform="translate(-126.375 -148.155)" fill="#fff"/>
  <path id="Path_4" data-name="Path 4" d="M452.7,711.575a45.371,45.371,0,0,1-24.19-4.49q-.795-.375-1.56-.81a4.254,4.254,0,0,1-.47-.25,45.58,45.58,0,0,1-23.15-34.74c-.02-.17-.04-.35-.06-.52-.54.28-1.08.55-1.61.83.02.17.04.33.07.5a47.226,47.226,0,0,0,23.93,35.41c.2.11.41.23.62.33q.78.42,1.56.81a47.051,47.051,0,0,0,24.82,4.63c.45-.04.9-.09,1.35-.14,0-.57.01-1.13.01-1.7C453.575,711.485,453.135,711.535,452.7,711.575Z" transform="translate(-126.375 -148.155)" fill="#fff"/>
  <path id="Path_5" data-name="Path 5" d="M451.325,730.165a45.549,45.549,0,0,1-27.75.21,44.466,44.466,0,0,1-5.31-2.02c-.54-.24-1.07-.5-1.6-.77-.57-.28-1.13-.58-1.68-.88a45.675,45.675,0,0,1-23.39-42.39,43.758,43.758,0,0,1,.96-7.16c.03-.16.06-.32.1-.48-.66.41-1.32.82-1.97,1.24-.03.15-.06.29-.08.44a46.773,46.773,0,0,0-.73,9.79,47.253,47.253,0,0,0,24.28,40.03c.56.31,1.12.61,1.68.89.53.27,1.07.53,1.6.78a47.175,47.175,0,0,0,33.53,2.19c.37-.1.74-.22,1.11-.34.15-.64.28-1.28.4-1.92C452.1,729.915,451.715,730.045,451.325,730.165Z" transform="translate(-126.375 -148.155)" fill="#fff"/>
  <rect id="Rectangle_1" data-name="Rectangle 1" width="56" height="56" transform="translate(200.25 246.52)" fill="#9e616a"/>
  <path id="Path_6" data-name="Path 6" d="M165.326,581.214H176.36l5.248-42.557H165.324Z" fill="#9e616a"/>
  <path id="Path_7" data-name="Path 7" d="M321.985,741.8l-16.58-11.45v-7.47l-1.88.11-11.82.71-3.74.22-2.13,25.54-.07.85h7.83l.16-.85,1.24-6.54,3.17,6.54.41.85h20.76a4.666,4.666,0,0,0,2.65-8.51Z" transform="translate(-126.375 -148.155)" fill="#2f2e41"/>
  <path id="Path_8" data-name="Path 8" d="M229.853,574.209l10.6,3.049,16.808-39.448-15.65-4.5Z" fill="#9e616a"/>
  <path id="Path_9" data-name="Path 9" d="M381.895,742.7l-12.77-15.59,2.07-7.18-1.84-.41-10.25-2.3-1.31-.29-3.65-.82-9.41,24.75,7.52,2.17,3.39-6.72,1.39,8.09,4.74,1.36,12.89,3.71,2.33.67a4.663,4.663,0,0,0,4.9-7.44Z" transform="translate(-126.375 -148.155)" fill="#2f2e41"/>
  <path id="Path_10" data-name="Path 10" d="M1070.35,148.155H485.895a3.28,3.28,0,0,0-3.27,3.28v19.25a3.28,3.28,0,0,0,3.27,3.28h584.46a3.28,3.28,0,0,0,3.27-3.28v-19.25a3.28,3.28,0,0,0-3.275-3.28Z" transform="translate(-126.375 -148.155)" fill="#0c7fda"/>
  <circle id="Ellipse_90" data-name="Ellipse 90" cx="4.648" cy="4.648" r="4.648" transform="translate(370.601 7.317)" fill="#fff"/>
  <circle id="Ellipse_91" data-name="Ellipse 91" cx="4.648" cy="4.648" r="4.648" transform="translate(388.242 7.317)" fill="#fff"/>
  <circle id="Ellipse_92" data-name="Ellipse 92" cx="4.648" cy="4.648" r="4.648" transform="translate(405.885 7.317)" fill="#fff"/>
  <path id="Path_11" data-name="Path 11" d="M1053.06,153.915h-20.31a1.5,1.5,0,1,0,0,3.01h20.31a1.505,1.505,0,1,0,0-3.01Z" transform="translate(-126.375 -148.155)" fill="#fff"/>
  <path id="Path_12" data-name="Path 12" d="M1053.06,159.555h-20.31a1.5,1.5,0,1,0,0,3.01h20.31a1.505,1.505,0,1,0,0-3.01Z" transform="translate(-126.375 -148.155)" fill="#fff"/>
  <path id="Path_13" data-name="Path 13" d="M1053.06,165.2h-20.31a1.505,1.505,0,1,0,0,3.01h20.31a1.5,1.5,0,1,0,0-3.01Z" transform="translate(-126.375 -148.155)" fill="#fff"/>
  <path id="Path_14" data-name="Path 14" d="M1050.75,229.645H899.325a3.99,3.99,0,0,0-3.98,3.98v61.45a3.99,3.99,0,0,0,3.98,3.98h151.43a3.984,3.984,0,0,0,3.98-3.98v-61.45a3.984,3.984,0,0,0-3.985-3.98Z" transform="translate(-126.375 -148.155)" fill="#0c7fda"/>
  <path id="Path_15" data-name="Path 15" d="M1036.33,318.975H913.745a4.775,4.775,0,1,0,0,9.55H1036.33C1042.56,328.615,1042.5,318.885,1036.33,318.975Z" transform="translate(-126.375 -148.155)" fill="#0c7fda"/>
  <path id="Path_16" data-name="Path 16" d="M1036.33,340.865H913.745a4.775,4.775,0,1,0,0,9.55H1036.33C1042.56,350.505,1042.5,340.775,1036.33,340.865Z" transform="translate(-126.375 -148.155)" fill="#0c7fda"/>
  <path id="Path_17" data-name="Path 17" d="M1036.33,362.755H913.745a4.775,4.775,0,1,0,0,9.55H1036.33C1042.56,372.395,1042.5,362.665,1036.33,362.755Z" transform="translate(-126.375 -148.155)" fill="#0c7fda"/>
  <path id="Path_18" data-name="Path 18" d="M851.755,229.645H700.325a3.99,3.99,0,0,0-3.98,3.98v61.45a3.99,3.99,0,0,0,3.98,3.98h151.43a3.984,3.984,0,0,0,3.98-3.98v-61.45A3.984,3.984,0,0,0,851.755,229.645Z" transform="translate(-126.375 -148.155)" fill="#0c7fda"/>
  <path id="Path_19" data-name="Path 19" d="M837.335,318.975H714.745a4.775,4.775,0,1,0,0,9.55h122.59C843.555,328.615,843.495,318.885,837.335,318.975Z" transform="translate(-126.375 -148.155)" fill="#0c7fda"/>
  <path id="Path_20" data-name="Path 20" d="M837.335,340.865H714.745a4.775,4.775,0,1,0,0,9.55h122.59C843.555,350.505,843.495,340.775,837.335,340.865Z" transform="translate(-126.375 -148.155)" fill="#0c7fda"/>
  <path id="Path_21" data-name="Path 21" d="M837.335,362.755H714.745a4.775,4.775,0,1,0,0,9.55h122.59C843.555,372.395,843.495,362.665,837.335,362.755Z" transform="translate(-126.375 -148.155)" fill="#0c7fda"/>
  <path id="Path_22" data-name="Path 22" d="M472.043,345.862a10.023,10.023,0,0,0-.423,1.747l-62-10.96-53.408-28.8a15.08,15.08,0,0,0-16.1,25.418h0a118.97,118.97,0,0,0,32.736,17l38.72,12.97,67.821-4.347a10,10,0,1,0-7.345-13.024Z" transform="translate(-126.375 -148.155)" fill="#9e616a"/>
  <path id="Path_23" data-name="Path 23" d="M624.555,346.055H431.535a5.087,5.087,0,0,0-5.08,5.08v78.31a5.087,5.087,0,0,0,5.08,5.08h193.02a5.085,5.085,0,0,0,5.07-5.08v-78.31A5.085,5.085,0,0,0,624.555,346.055Z" transform="translate(-126.375 -148.155)" fill="#0c7fda"/>
  <path id="Path_24" data-name="Path 24" d="M606.175,459.915H449.915a6.09,6.09,0,0,0,0,12.18h156.26C614.1,472.2,614.025,459.8,606.175,459.915Z" transform="translate(-126.375 -148.155)" fill="#0c7fda"/>
  <path id="Path_25" data-name="Path 25" d="M606.175,487.815H449.915a6.09,6.09,0,1,0,0,12.18h156.26C614.1,500.105,614.025,487.7,606.175,487.815Z" transform="translate(-126.375 -148.155)" fill="#0c7fda"/>
  <path id="Path_26" data-name="Path 26" d="M606.175,515.725H449.915a6.085,6.085,0,1,0,0,12.17h156.26C614.1,528.005,614.025,515.615,606.175,515.725Z" transform="translate(-126.375 -148.155)" fill="#0c7fda"/>
  <circle id="Ellipse_1" data-name="Ellipse 1" cx="29.729" cy="29.729" r="29.729" transform="translate(190.933 129.465) rotate(-61.337)" fill="#9e616a"/>
  <path id="Path_27" data-name="Path 27" d="M362.625,229.675h-19.2c-12.59,0-22.8,11.482-22.8,25.646-9.5,9.539-6.649,21.489.889,34.354a149.225,149.225,0,0,1,39.541,10.576l1.792-7.654,3.536,10.081q4.717,2.285,9.354,5c-3.608-16.951-5.093-33.863-2.616-47h6.5v-7.118l2.208,7.118h11.792a31,31,0,0,0-31-31Z" transform="translate(-126.375 -148.155)" fill="#2f2e41"/>
  <path id="Path_28" data-name="Path 28" d="M360.625,303.675l-35.955-1.559-.967,3.674a213.669,213.669,0,0,0-3.6,92.57h0a8.242,8.242,0,0,1,2.345,8.007l-.517,2.059.048.075a12.062,12.062,0,0,1,1.6,9h0l1.8,9.9,58.246-25.732,13-45Z" transform="translate(-126.375 -148.155)" fill="#cacaca"/>
  <path id="Path_29" data-name="Path 29" d="M449.732,398.519a10.025,10.025,0,0,0-1.084,1.434l-52.5-34.757L358.634,317.5a15.08,15.08,0,0,0-24.891,16.9h0A118.97,118.97,0,0,0,357,363.033l30.346,27.323,63.937,23.035a10,10,0,1,0-1.548-14.872Z" transform="translate(-126.375 -148.155)" fill="#9e616a"/>
  <path id="Path_30" data-name="Path 30" d="M563.908,298.82a28.735,28.735,0,1,1,28.735-28.735,28.735,28.735,0,0,1-28.735,28.735Z" transform="translate(-126.375 -148.155)" fill="#0c7fda"/>
  <path id="Path_31" data-name="Path 31" d="M575.247,267.25h-8.5v-8.5a2.835,2.835,0,1,0-5.669,0v8.5h-8.5a2.835,2.835,0,1,0,0,5.669h8.5v8.5a2.835,2.835,0,0,0,5.669,0v-8.5h8.5a2.835,2.835,0,1,0,0-5.669Z" transform="translate(-126.375 -148.155)" fill="#fff"/>
  <path id="Path_32" data-name="Path 32" d="M420.614,619.614a16.874,16.874,0,0,0-1.57-15.087L393.625,472.675l-10-50h-60s-37.5,41.5-29.5,94.5l-2.239,74.64a27.448,27.448,0,0,0-1.5,16.186l.891,4.222-.344.636a21.334,21.334,0,0,0-.269,19.772l-2.536,84.544,18-1,26.5-98.5,17.5-88.5,29.5,68.5,1,16-.485,14.1-23.015,82.4,19.5,7.5Z" transform="translate(-126.375 -148.155)" fill="#2f2e41"/>
  <path id="Path_33" data-name="Path 33" d="M566.055,750.655a1.193,1.193,0,0,1-1.19,1.19h-437.3a1.19,1.19,0,0,1,0-2.38h437.3a1.187,1.187,0,0,1,1.19,1.19Z" transform="translate(-126.375 -148.155)" fill="#cacaca"/>
</svg>
