<svg xmlns="http://www.w3.org/2000/svg" width="773.1" height="600" viewBox="0 0 773.1 600">
  <g id="undraw_location_tracking_re_n3ok" transform="translate(0 0.001)">
    <path id="Path_1" data-name="Path 1" d="M225.343,702.6c5.052,17.526,19.8,29.8,35.191,40.217q3.223,2.183,6.448,4.266c.015.006.03.02.044.026.1.066.207.133.3.2l1.328.855-.242.109s-.237.126.022.02c.077-.032.158-.061.235-.094,8.939-3.605,18.037-7.476,24.888-14.23,7.107-7.014,11.259-18.014,7.411-27.228a17.594,17.594,0,0,0-1.9-3.419c-.312-.447-.648-.874-1-1.294a18.856,18.856,0,0,0-32.386,5.73c-1.13-10.526,7.549-19.343,15.9-25.848s17.851-13.583,19.467-24.051c.9-5.824-1.123-11.468-4.812-16-.114-.138-.228-.275-.346-.409a27.519,27.519,0,0,0-17.687-9.489c-12.813-1.332-25.259,5.451-34.568,14.359C228.657,660.66,219.6,682.677,225.343,702.6Z" transform="translate(-213.45 -150)" fill="#0c7fda"/>
    <path id="Path_2" data-name="Path 2" d="M249.427,679.68a46.778,46.778,0,0,0-5.6,12.361,40.619,40.619,0,0,0-1.4,12,52.044,52.044,0,0,0,6.816,23.685,74.9,74.9,0,0,0,11.3,15.1q3.223,2.183,6.448,4.266c.015.006.03.02.044.026.1.066.207.133.3.2l1.328.855s-.479.235-.219.129c.077-.032.158-.061.235-.094a41.039,41.039,0,0,1,30.395-44.877c-.312-.447-.648-.874-1-1.294a43.294,43.294,0,0,0-7.147,2.7,42.424,42.424,0,0,0-19.182,18.494,43.374,43.374,0,0,0-4.723,23.8c-.367-.333-.735-.673-1.092-1.01-6.793-6.333-12.826-13.6-16.91-21.992a48.417,48.417,0,0,1-5.07-22.908c.333-8.653,3.781-16.668,8.773-23.646a101.344,101.344,0,0,1,19.21-19.8,115.158,115.158,0,0,1,23.892-14.751.828.828,0,0,0,.417-1.063.7.7,0,0,0-.346-.409.613.613,0,0,0-.532.023c-1.054.485-2.1.977-3.139,1.49a116.467,116.467,0,0,0-24.062,15.873C261.078,664.88,254.409,671.779,249.427,679.68Z" transform="translate(-213.45 -150)" fill="#fff"/>
    <path id="Path_3" data-name="Path 3" d="M238.265,584.987H251.69l6.386-51.78H238.263Z" fill="#ffb7b7"/>
    <path id="Path_4" data-name="Path 4" d="M448.291,730.6h26.438a16.849,16.849,0,0,1,16.848,16.847V748l-43.285,0Z" transform="translate(-213.45 -150)" fill="#2f2e41"/>
    <path id="Path_5" data-name="Path 5" d="M165.581,584.987h13.425l6.386-51.78H165.579Z" fill="#ffb7b7"/>
    <path id="Path_6" data-name="Path 6" d="M375.607,730.6h26.438a16.849,16.849,0,0,1,16.848,16.847V748l-43.285,0Z" transform="translate(-213.45 -150)" fill="#2f2e41"/>
    <path id="Path_7" data-name="Path 7" d="M160.112,350.309V487.025l3.461,88.259h28.554l9.519-166.135,19.036,68.358L232.8,573.553l34.611-1.73L244.045,350.309Z" fill="#2f2e41"/>
    <circle id="Ellipse_1" data-name="Ellipse 1" cx="20.767" cy="20.767" r="20.767" transform="translate(172.539 185.904)" fill="#ffb8b8"/>
    <path id="Path_8" data-name="Path 8" d="M184.677,232.849l-5.529,5.838L173.956,355.5l61.436-1.73-14.71-102.1L207.7,239.229l-6.586-6.38Z" fill="#0c7fda"/>
    <path id="Path_9" data-name="Path 9" d="M388.272,395.609l4.663-7.569,1.394,16.221s11.249,36.342,10.383,68.358,4.326,107.3-2.6,108.161-36.342,2.6-36.342-3.461-1.731-167-1.731-167Z" transform="translate(-213.45 -150)" fill="#2f2e41"/>
    <path id="Path_10" data-name="Path 10" d="M419.759,388.041l11.777,9.3,25.959,9.518s0,110.757,5.192,136.715,14.71,28.555,2.6,29.42-11.249-3.461-11.249-3.461-35.477-110.757-33.747-138.446S418.029,388.041,419.759,388.041Z" transform="translate(-213.45 -150)" fill="#2f2e41"/>
    <path id="Path_11" data-name="Path 11" d="M387.11,363.169s1.764-3.1,1.354-13.45,15.353-4.5,28.524-5.484,10.383,17.281,10.383,17.281.95-1.086,2.985-9.9-2.585-17.6-2.585-17.6c-1.36-9.265-8.692-6.3-8.692-6.3,3.531,1.375,2.853,4.314,2.853,4.314-2.989-5.24-10.321-2.271-10.321-2.271-9.779-6.136-19.689,1.944-19.689,1.944-11.813,2.681-4.885,12.075-4.885,12.075C375.156,349.78,387.11,363.169,387.11,363.169Z" transform="translate(-213.45 -150)" fill="#2f2e41"/>
    <path id="Path_12" data-name="Path 12" d="M365.8,564.808a8.76,8.76,0,0,0-1.553-13.343l3.741-19.666-11.4-5.188L351.7,554.458a8.808,8.808,0,0,0,14.1,10.35Z" transform="translate(-213.45 -150)" fill="#ffb7b7"/>
    <path id="Path_13" data-name="Path 13" d="M368.37,410.319l-2.3-1.232s-12.412,4.693-11.547,8.154-6.922,124.6-4.326,128.928,23.363.865,23.363.865Z" transform="translate(-213.45 -150)" fill="#2f2e41"/>
    <path id="Path_14" data-name="Path 14" d="M467.15,556.652a8.76,8.76,0,0,1-.308-13.429l-6.426-18.959,10.569-6.715,8.7,26.9a8.808,8.808,0,0,1-12.534,12.2Z" transform="translate(-213.45 -150)" fill="#ffb7b7"/>
    <path id="Path_15" data-name="Path 15" d="M457.007,540.123s21.046.555,23.018-4.089-22.5-123.542-22.123-127.089-12.564-6.478-12.564-6.478L443.233,404Z" transform="translate(-213.45 -150)" fill="#2f2e41"/>
    <path id="Path_16" data-name="Path 16" d="M595.45,750h-381a1,1,0,1,1,0-2h381a1,1,0,0,1,0,2Z" transform="translate(-213.45 -150)" fill="#cbcbcb"/>
    <path id="Path_17" data-name="Path 17" d="M986.55,458H634.892V239.069H986.55Zm-343.476-8.182H978.367V247.251H643.074Z" transform="translate(-213.45 -150)" fill="#0c7fda"/>
    <rect id="Rectangle_1" data-name="Rectangle 1" width="343.476" height="210.748" transform="translate(425.532 93.16)" fill="#fff"/>
    <path id="Path_18" data-name="Path 18" d="M982.459,296.574v-12.94H934.811V243.16h-12.94v40.473H837.042V243.16H824.1v40.473H693.266V243.16h-12.94v40.473H638.983v12.941h41.343V346.9H638.983v12.94h41.343v53.916H638.983v12.94H750.058v27.217H763V426.692H824.1v27.217h12.94V426.692H982.459v-12.94H837.042V359.835H982.459V346.9H934.811V296.574Zm-158.356,0v15.815H693.266V296.574ZM693.266,325.329H824.1V346.9H693.266Zm0,88.423V359.835h56.792v53.916Zm130.837,0H763V359.835H824.1ZM921.871,346.9H837.042V296.574H921.87Z" transform="translate(-213.45 -150)" fill="#0c7fda"/>
    <path id="Path_19" data-name="Path 19" d="M893,212.047c0,34.268-62.047,110.606-62.047,110.606S768.9,246.315,768.9,212.047a62.048,62.048,0,1,1,124.1,0Z" transform="translate(-213.45 -150)" fill="#0c7fda"/>
    <path id="Path_20" data-name="Path 20" d="M859.316,209.35a28.365,28.365,0,1,1-28.365-28.365,28.365,28.365,0,0,1,28.365,28.365Z" transform="translate(-213.45 -150)" fill="#fff"/>
    <circle id="Ellipse_2" data-name="Ellipse 2" cx="16.726" cy="16.726" r="16.726" transform="translate(600.774 183.984)" fill="#0c7fda"/>
  </g>
</svg>
